<?xml version="1.0" standalone="no"?> <!DOCTYPE svg PUBLIC "-//W3C//DTD SVG 1.0//EN" "http://www.w3.org/TR/2001/REC-SVG-20010904/DTD/svg10.dtd" > <svg xmlns="http://www.w3.org/2000/svg" width="100%" height="100%">
<defs >
<font id="aurelisscriptno2cd-italic" horiz-adv-x="480" ><font-face
    font-family="AurelisScriptNo2Cd-Italic"
    units-per-em="1000"
    panose-1="3 2 5 6 7 0 0 9 0 3"
    ascent="940"
    descent="-286"
    alphabetic="0" />
<missing-glyph horiz-adv-x="797" d="M297 0V700H797V0H297ZM547 395L717 650H377L547 395ZM577 350L747 95V605L577 350ZM377 50H717L547 305L377 50ZM347 605V95L517 350L347 605Z" />
<glyph unicode=" " glyph-name="space" horiz-adv-x="250" />
<glyph unicode="!" glyph-name="exclam" horiz-adv-x="271" d="M420 685Q449 685 449 651Q449 628 433 591L211 176H198L329 594Q346 633 370 659T420 685ZM93 25Q93 51 117 74T172 98Q187 98 197 90T207 66Q207 40 183 16T126 -9Q93 -3 93 25Z" />
<glyph unicode="&quot;" glyph-name="quotedbl" horiz-adv-x="366" d="M560 676Q589 676 589 653Q589 623 528 543T415 432Q455 482 468 514T485 577T500 635Q506 652 523 664T560 676ZM390 676Q421 676 421 653Q421 622 360 543T246 432Q286 482 299 514T316
577T331 635Q337 652 354 664T390 676Z" />
<glyph unicode="#" glyph-name="numbersign" horiz-adv-x="517" d="M432 271L508 405H388L315 271H432ZM490 271H590L566 216H457L335 0H277L399 216H284L166 0H108L232 216H125L149 271H265L341 405H232L256 460H371L481 662H529L419 460H539L655 662H713L597
460H694L670 405H566L490 271Z" />
<glyph unicode="$" glyph-name="dollar" horiz-adv-x="518" d="M185 156Q198 156 211 146T225 121Q225 116 224 114Q206 113 188 96T170 64Q170 42 217 30L344 330Q273 382 273 445Q273 514 333 578T488 672L522 750H554L524 681Q536 683 543 684Q549 685 561
685Q580 685 589 684L617 750H649L619 680Q666 669 697 645T728 587Q728 557 705 524T631 487Q586 491 586 525Q586 536 593 559Q609 559 623 570T637 599Q637 623 601 637L489 373Q568 303 568 232Q568 202 554 168Q523 100 463 56T329 -6L291 -96H258L295 -12Q267
-14 256 -14H231L196 -96H163L200 -12Q71 -1 71 53Q71 88 108 122T185 156ZM350 42Q393 62 421 105T450 190Q450 222 434 243L350 42ZM369 312L247 25Q255 22 273 22Q293 22 311 28L412 268L369 312ZM467 623Q428 605 405 576T382 513Q382 487 399 461L467 623ZM569
638L546 643Q526 643 506 637L421 435L465 391L569 638Z" />
<glyph unicode="%" glyph-name="percent" horiz-adv-x="645" d="M482 15Q523 15 563 68T625 184T648 285Q648 335 616 335H615Q582 335 545 284T483 172T454 68V55Q454 15 482 15ZM404 84Q410 140 442 204T526 315T627 362H628Q670 362 691 336T713 266Q713 176
637 82T469 -12Q403 -12 403 66Q403 77 404 84ZM327 326Q360 326 398 378T460 492T488 595Q488 598 488 602T489 608Q489 647 462 647H461Q422 647 382 597T317 484T293 380Q293 326 327 326ZM228 393Q228 450 262 515T354 628T474 675Q538 675 538 598Q538 595
538 589T537 579Q531 522 499 458T416 346T314 298Q271 298 250 324T228 393ZM805 671L149 -35L134 -11L786 692L805 671Z" />
<glyph unicode="&amp;" glyph-name="ampersand" horiz-adv-x="615" d="M371 343L358 336Q344 328 330 319T296 295T259 262T227 223T202 176T193 122V115Q193 81 207 60T250 39Q294 39 386 104Q370 186 370 292Q370 325 371 343ZM580 644Q533 644 499 588T456
442Q455 433 455 416Q515 448 553 486T602 549T616 597V605Q616 644 580 644ZM467 178Q519 227 555 272T591 341Q591 358 565 362L626 414L655 380Q642 300 473 150Q481 103 502 81T564 58Q606 58 640 80Q597 29 563 8T491 -13H488Q455 -13 433 9T395 78Q279 -13
189 -13Q140 -13 111 9T81 72Q81 96 91 124T125 192T204 274T335 355L374 377Q387 470 408 522Q435 586 487 631T592 676Q622 676 640 660T658 613Q658 606 657 603Q656 585 644 555Q620 499 574 459T453 384V346Q453 247 467 178Z" />
<glyph unicode="&apos;" glyph-name="quotesingle" horiz-adv-x="198" d="M386 676Q416 676 416 653Q416 622 355 543T242 432Q282 482 295 514T312 577T326 635Q333 652 349 664T386 676Z" />
<glyph unicode="(" glyph-name="parenleft" horiz-adv-x="315" d="M577 676L579 660Q444 578 375 495T239 255Q169 90 169 3Q169 -86 231 -161L213 -177Q164 -139 138 -75T111 65Q111 159 150 252Q263 519 577 676Z" />
<glyph unicode=")" glyph-name="parenright" horiz-adv-x="300" d="M-50 -177L-52 -161Q81 -83 152 1T290 244Q357 403 357 496Q357 583 296 660L315 676Q419 578 419 437Q419 395 409 345T367 225T286 88T150 -49T-50 -177Z" />
<glyph unicode="*" glyph-name="asterisk" horiz-adv-x="459" d="M579 460Q573 447 558 432T529 413Q495 443 409 447L440 384L376 414Q383 336 409 286Q402 270 386 254T355 232Q341 237 327 253T304 286Q332 330 340 414L272 383L304 446Q221 442 185 413Q173
417 158 432T136 460Q143 474 158 489T185 507Q221 480 303 475L272 544L341 514Q335 578 306 624Q312 640 327 656T356 678Q388 667 411 624Q379 581 375 514L440 544L410 474Q491 479 530 507Q542 504 556 490T579 460Z" />
<glyph unicode="+" glyph-name="plus" horiz-adv-x="477" d="M100 246H286V435H353V246H535V176H352V-14H285V176H100V246Z" />
<glyph unicode="," glyph-name="comma" horiz-adv-x="221" d="M49 22Q49 48 74 75T138 102Q161 102 175 89T190 53Q190 13 144 -45T3 -141V-122Q108 -66 129 -16Q134 -4 121 -2Q115 -3 108 -4Q96 -6 92 -6Q49 -6 49 22Z" />
<glyph unicode="-" glyph-name="hyphen" horiz-adv-x="363" d="M98 246H431L412 176H79L98 246Z" />
<glyph unicode="." glyph-name="period" horiz-adv-x="214" d="M60 22Q60 47 86 73T145 100Q161 100 171 92T182 67Q182 40 156 15T96 -11Q81 -11 71 -2T60 22Z" />
<glyph unicode="/" glyph-name="slash" horiz-adv-x="348" d="M538 676H605L85 -14H17L538 676Z" />
<glyph unicode="0" glyph-name="zero" horiz-adv-x="506" d="M534 657Q441 657 309 365L294 329Q237 193 225 117Q223 105 221 80Q220 75 220 65Q220 12 258 12Q306 12 366 92T492 330Q553 476 564 556Q568 586 569 594Q569 597 569 601T570 608Q570 642 550 653L534
657ZM159 166Q175 266 232 384T377 592T548 683Q588 683 610 650T632 556Q632 526 628 498Q611 395 554 278T413 74T248 -13Q206 -13 181 19T156 113Q156 147 159 166Z" />
<glyph unicode="1" glyph-name="one" horiz-adv-x="274" d="M282 600L462 687L477 676L232 101Q223 82 222 69Q221 65 221 59Q221 28 253 27L241 0H61L72 27Q126 30 159 106L346 547Q356 571 358 589Q360 604 354 607L283 576L282 600Z" />
<glyph unicode="2" glyph-name="two" horiz-adv-x="461" d="M59 0L73 35Q86 67 138 121T256 234T386 354T498 478T553 585Q554 591 554 602Q554 653 501 653Q468 653 433 631T371 568L304 567Q340 622 396 654T508 687Q557 687 584 662T612 593Q612 589 612 582T611
570Q605 540 595 519Q578 480 534 433T436 340T329 250T231 159T171 75H421L404 0H59Z" />
<glyph unicode="3" glyph-name="three" horiz-adv-x="437" d="M201 20Q276 21 338 99T413 259Q415 271 415 284Q415 368 321 369L336 402H340Q457 402 520 546Q529 569 532 586Q532 589 532 594T533 601V607Q533 653 484 653Q449 653 415 629T362 561V559V558V556H298Q331
613 390 650T503 687Q543 687 568 664T593 601Q593 589 592 583Q585 537 547 482T430 388Q495 362 495 293Q495 289 495 280T494 266Q474 145 375 66T179 -13Q131 -13 102 12T73 81Q73 88 75 102L76 105H142Q140 93 140 87Q140 55 156 38T201 20Z" />
<glyph unicode="4" glyph-name="four" horiz-adv-x="453" d="M442 258H532L505 194H415L360 62Q355 50 355 44Q354 42 354 38Q354 20 374 20Q343 -13 297 -13Q275 -13 275 11Q275 17 276 20Q277 28 285 50L345 194H121L149 258Q235 316 379 463T552 677H621L442
258ZM506 570Q374 396 188 258H373L506 570Z" />
<glyph unicode="5" glyph-name="five" horiz-adv-x="425" d="M207 20Q272 21 334 89T408 232Q410 240 410 255V261Q410 320 368 340T256 361H241L407 677H658L612 602H411L307 401Q497 399 497 278Q497 271 495 253Q478 146 381 67T185 -13Q137 -13 108 12T79
81Q79 95 81 102V105H148Q147 99 147 87Q147 55 163 38T207 20Z" />
<glyph unicode="6" glyph-name="six" horiz-adv-x="487" d="M257 20Q314 20 374 106T448 275Q451 292 451 303Q451 370 393 370Q338 370 282 292T210 125Q209 114 209 94Q208 92 208 87Q208 20 257 20ZM145 155Q154 213 183 283T260 425T365 554T493 650T633 687H640L625
652Q554 652 489 604T382 493T305 351Q373 416 431 416Q433 416 435 416T439 415Q483 415 509 390T535 317Q535 309 533 287Q526 242 502 191T441 94T351 18T242 -13Q195 -13 168 19T141 110Q141 123 145 155Z" />
<glyph unicode="7" glyph-name="seven" horiz-adv-x="425" d="M293 603L334 677H677L665 650Q655 626 535 488T298 210T175 36Q171 20 189 20Q183 6 163 -4T124 -15Q97 -15 97 9V17Q100 32 112 53Q124 83 333 333T553 603H293Z" />
<glyph unicode="8" glyph-name="eight" horiz-adv-x="442" d="M495 653Q449 653 414 616T368 529L365 511V501Q365 457 399 400L409 406Q478 448 509 497T548 586Q549 592 549 601Q549 653 495 653ZM233 20Q289 20 329 68T379 173Q380 180 380 195Q380 235 355
279L332 323Q282 284 253 248T200 159Q188 132 181 105Q181 98 179 86V76Q179 20 233 20ZM609 583Q606 565 600 548T585 517T564 489T540 465T515 443T490 425T465 409T443 397T425 388T413 382Q466 305 466 245Q466 227 464 219Q450 133 380 60T210 -13Q166 -13
140 12T113 81Q113 88 115 102Q121 131 129 151Q153 204 191 242T321 343Q284 436 284 465Q284 475 285 480Q296 554 365 620T514 687Q556 687 583 664T610 601Q610 589 609 583Z" />
<glyph unicode="9" glyph-name="nine" horiz-adv-x="489" d="M519 652Q456 652 400 567T331 406Q329 395 329 380Q329 312 386 312Q444 312 499 391T569 554Q570 566 570 585Q570 652 519 652ZM633 524Q625 470 597 401T521 260T417 126T288 26T143 -13H141L156
20Q189 21 225 36T305 84T392 180T474 329Q406 265 348 265H339Q295 265 270 291T244 364Q244 374 246 394Q253 438 275 486T333 581T422 657T534 687Q581 687 609 655T637 566Q637 554 633 524Z" />
<glyph unicode=":" glyph-name="colon" horiz-adv-x="221" d="M65 22Q65 47 91 73T150 100Q166 100 176 92T187 67Q187 40 161 15T101 -11Q86 -11 76 -2T65 22ZM217 381Q217 406 243 432T301 459Q317 459 328 450T339 425Q339 398 313 373T253 348Q238 348 228
357T217 381Z" />
<glyph unicode=";" glyph-name="semicolon" horiz-adv-x="227" d="M210 381Q210 408 236 433T294 459Q309 459 319 450T330 426Q330 398 304 373T246 348Q230 348 220 357T210 381ZM60 30Q60 54 84 78T145 102Q169 102 183 89T198 53Q198 5 145 -52T10 -141V-122Q113
-68 137 -16Q143 -3 128 -2L116 -4Q102 -6 100 -6Q60 0 60 30Z" />
<glyph unicode="&lt;" glyph-name="less" horiz-adv-x="612" d="M607 62L604 -10L99 220V286L607 516V444L188 253L607 62Z" />
<glyph unicode="=" glyph-name="equal" horiz-adv-x="665" d="M160 186H663L662 120H158L160 186ZM160 386H663L662 320H159L160 386Z" />
<glyph unicode="&gt;" glyph-name="greater" horiz-adv-x="612" d="M666 220L157 -10L160 62L578 253L159 444L160 516L666 286V220Z" />
<glyph unicode="?" glyph-name="question" horiz-adv-x="449" d="M180 22Q180 47 206 73T265 99Q280 99 289 91T298 69V68Q297 43 274 18T219 -8Q180 -8 180 22ZM267 495Q267 548 336 612T500 676Q554 676 591 650T628 578Q628 544 611 509T560 438T503 382T441
330Q431 322 426 318Q416 310 407 301T390 284T374 265T360 247T346 227T334 208T321 186T307 164H271Q285 195 304 224T337 270T379 319T423 370Q537 505 537 579V580Q537 610 521 628T471 646Q435 646 398 628T349 584Q333 552 333 534Q333 513 356 510Q337 469
298 469Q267 469 267 495Z" />
<glyph unicode="@" glyph-name="at" horiz-adv-x="777" d="M515 187Q564 187 611 263T670 426Q667 463 637 464L616 461Q555 444 511 377T467 247Q467 187 515 187ZM619 654Q523 654 444 595T323 450T282 273Q282 164 349 95T530 25Q649 25 734 73Q728 65 715
54T676 26T610 -2T524 -14H514Q377 -14 288 70T199 281Q199 383 261 477T421 628T623 685Q747 685 827 613T907 431Q907 325 836 234T681 143Q646 143 624 161T601 212V216Q532 148 466 144Q435 144 414 168T393 232Q393 316 467 412T629 508Q683 508 693 456L709
494H778L675 240Q670 227 670 222Q668 212 668 207Q668 176 701 176Q755 176 810 252T865 416Q865 516 794 585T619 654Z" />
<glyph unicode="A" glyph-name="A" horiz-adv-x="570" d="M631 -220L431 -284Q399 -284 399 -225V-220L441 216H242L150 99Q121 68 121 43Q121 20 149 20Q141 6 116 -4T73 -14H70H65Q50 -14 40 -7T30 11Q30 14 32 20L466 566Q473 577 482 600T492 630V634Q492
648 481 651Q516 685 570 685L487 -164V-178Q487 -207 498 -219T540 -232Q572 -232 631 -220ZM475 532L271 257H448L475 532Z" />
<glyph unicode="B" glyph-name="B" horiz-adv-x="551" d="M428 366Q505 366 558 432T616 559V569Q616 638 519 638H485Q468 638 456 608L353 366H428ZM336 326L232 78Q226 63 226 55Q226 37 263 37Q346 37 397 72T480 179Q494 209 497 238Q497 240 497 244T498
249Q498 293 460 309T336 326ZM320 0H36Q74 9 97 32T143 109L336 566Q355 607 355 631Q355 663 322 675H549Q628 675 670 648T713 569Q713 498 648 429T508 348Q610 314 610 242Q610 212 593 175T543 98T452 31T320 0Z" />
<glyph unicode="C" glyph-name="C" horiz-adv-x="598" d="M601 117Q601 87 573 61T502 20T415 -5T335 -14H330Q245 -14 200 35T154 172Q154 241 190 325Q255 479 381 574T623 676H638Q689 676 716 666T773 632Q800 602 800 571Q800 533 766 491T694 448L658 496Q681
497 699 519T717 564Q717 569 715 575Q709 594 703 605T678 626T627 636H621Q537 636 454 558T322 375T268 180Q266 160 266 152Q266 30 372 30Q415 30 445 37T521 69Q524 78 524 83Q524 102 505 102Q512 121 533 135T574 150Q601 146 601 117Z" />
<glyph unicode="D" glyph-name="D" horiz-adv-x="624" d="M460 619L450 599L229 78Q222 64 222 54Q222 37 251 37Q499 37 622 333Q657 414 661 473Q662 481 662 497Q662 638 506 638Q472 638 460 619ZM141 109L334 566Q354 612 354 634Q354 660 326 675H544Q652
675 708 622T764 474Q764 410 731 333Q685 224 606 147T441 35T268 0H40Q78 14 101 38T141 109Z" />
<glyph unicode="E" glyph-name="E" horiz-adv-x="555" d="M655 582Q689 587 689 618Q689 637 609 637H593H493Q487 637 483 637T476 635T470 632T466 627T462 621T458 613T452 603L359 381H422Q470 381 492 397T549 476H572L474 244H451Q464 279 465 296V302Q465
324 451 332T406 340H341L232 80Q221 55 221 50Q221 41 233 39T287 37H309H314Q352 37 380 42T424 52T462 75T490 101T523 140L563 102Q539 59 510 30T453 0H99L52 21Q80 29 101 47T143 109L335 566Q352 605 352 631Q352 651 330 675H732Q758 674 772 657T786 615Q786
601 781 588Q770 566 744 550T694 532L655 582Z" />
<glyph unicode="F" glyph-name="F" horiz-adv-x="526" d="M566 476L468 244H445Q456 280 456 297Q456 299 456 301T457 305Q457 327 444 333T397 340H342L245 109Q194 -14 143 -14L52 20Q79 22 100 41T147 120L336 566Q354 612 354 631T329 675H713Q730 674 739
658T754 619T765 587L683 533Q663 533 654 549T644 584T633 620T602 637H493H490Q465 637 453 603L360 381H415Q464 381 487 399T543 476H566Z" />
<glyph unicode="G" glyph-name="G" horiz-adv-x="631" d="M635 676Q687 676 713 666T760 632Q786 601 786 571Q786 533 752 491T680 448L655 496Q674 497 690 519T708 564Q708 565 708 567L709 569Q709 570 709 572T708 575Q706 588 703 597T691 616T666 631T625
636H619Q517 636 445 560T306 326Q270 241 264 175Q262 157 262 150Q262 91 292 59T383 26Q424 26 461 42T510 85L561 207Q568 222 570 234V238Q570 276 515 278Q529 310 572 327T647 344L726 284Q688 281 664 219L594 56Q557 32 481 9T349 -14Q250 -14 202 34T153
168Q153 249 197 340T309 505T465 627T635 676Z" />
<glyph unicode="H" glyph-name="H" horiz-adv-x="581" d="M140 109L327 553Q342 586 342 607Q342 638 308 644L441 685Q464 683 464 661Q464 635 429 553L347 360H560L642 553Q657 593 658 607V613Q658 641 634 644L754 685Q779 683 779 661Q779 637 743 553L555
109Q537 66 537 47Q537 22 564 20L471 -14Q456 -14 446 -1T436 37Q436 69 454 109L540 314H328L242 109Q224 68 222 47V42Q222 22 241 20L158 -14Q142 -14 132 -1T122 37Q122 69 140 109Z" />
<glyph unicode="I" glyph-name="I" horiz-adv-x="258" d="M132 109L319 553Q333 584 333 607Q333 638 299 644L432 685Q456 683 456 661Q456 635 421 553L234 109Q216 72 216 47T243 20L150 -14Q134 -14 124 -1T114 37Q114 69 132 109Z" />
<glyph unicode="J" glyph-name="J" horiz-adv-x="314" d="M449 571L170 -87Q130 -181 68 -232T-68 -284H-75Q-123 -284 -171 -263T-234 -200Q-213 -217 -166 -230T-80 -244H-74Q-44 -244 -8 -212T51 -132L339 553Q359 599 359 619Q359 625 358 629T355 635T349
638T343 640T335 640L329 641Q385 672 445 685Q473 683 473 656Q473 627 449 571Z" />
<glyph unicode="K" glyph-name="K" horiz-adv-x="526" d="M634 642L720 685Q730 683 739 674T749 652Q749 644 746 640Q687 595 430 377Q427 328 427 278Q427 124 456 -7T532 -205Q551 -230 595 -230Q624 -230 670 -221L504 -284Q441 -284 392 -144T343 203Q343
267 347 320L322 301L241 109Q220 61 220 42Q220 22 239 20L158 -14Q117 -14 117 28Q117 60 139 109L327 553Q341 587 341 607Q341 638 307 644L440 685Q463 683 463 661Q463 635 428 553L345 354Q426 415 531 504T643 612Q648 622 648 628Q648 642 634 642Z" />
<glyph unicode="L" glyph-name="L" horiz-adv-x="537" d="M513 154L547 98L414 0H31Q73 17 93 38T136 109L323 553Q337 582 337 607Q337 638 303 644L435 685Q460 683 460 660Q460 630 425 553L238 109Q222 74 218 45Q228 39 267 39H320H321Q411 39 513 154Z" />
<glyph unicode="M" glyph-name="M" horiz-adv-x="781" d="M628 120L807 572L378 0H363L398 547L227 147Q194 68 165 28T117 -14Q100 -14 87 -5T74 20Q102 20 128 46T185 147L369 581Q372 590 372 598Q372 614 362 626T337 639L453 685Q469 684 478 665T487 618Q487
616 487 611T486 603L463 157L807 621Q836 657 856 670T901 685Q930 683 930 651T900 552L726 109Q707 64 707 44Q707 20 731 20L632 -14Q602 -12 602 22Q602 54 628 120Z" />
<glyph unicode="N" glyph-name="N" horiz-adv-x="634" d="M749 515L652 286Q595 151 595 100Q595 58 631 58L509 -14L395 539L229 147Q197 68 165 27T114 -14Q64 -14 55 20H60Q131 20 186 147L366 572Q368 578 368 582Q368 599 352 617T318 640L430 685Q445 685
455 674T469 652T478 622L562 176L705 515Q726 565 729 592V600Q729 607 728 612T725 621T718 628T712 633T704 637T696 640L778 685Q792 673 792 653Q792 620 749 515Z" />
<glyph unicode="O" glyph-name="O" horiz-adv-x="647" d="M339 22Q402 22 467 78T578 213T656 376T690 517Q690 522 690 530T691 542Q691 596 667 622T606 649Q542 649 478 594T367 461T291 300T258 157Q256 137 256 129Q256 78 277 50T339 22ZM160 183Q160 262
200 351T304 514T453 636T621 685Q698 685 743 635T788 493Q788 388 721 270T543 69T321 -14Q248 -14 204 38T160 183Z" />
<glyph unicode="P" glyph-name="P" horiz-adv-x="532" d="M400 341Q452 341 492 361T555 408T592 467T612 521T617 555Q618 558 618 565Q618 638 506 638Q485 638 474 621L466 604L356 344Q382 341 400 341ZM727 558Q727 533 716 502T680 434T617 369T521 321T392
301Q368 301 339 304L257 109Q204 -14 157 -14L63 18Q92 18 111 36T159 120L348 566Q372 623 372 644Q372 664 348 675H557Q633 675 680 645T727 558Z" />
<glyph unicode="Q" glyph-name="Q" horiz-adv-x="646" d="M338 22Q401 22 464 77T572 212T647 373T683 513Q685 533 685 542Q685 649 605 649Q535 649 454 569T308 335Q263 229 255 152Q253 134 253 125Q253 22 338 22ZM155 176Q155 279 223 398T401 601T619 685Q688
685 725 641T763 520Q763 509 761 487Q755 428 727 354T654 206T538 74T390 -2Q380 -23 379 -41Q379 -43 379 -47T378 -53Q378 -121 449 -168T640 -216H646L494 -284Q460 -283 427 -270T359 -226T297 -138T256 -1Q155 52 155 176Z" />
<glyph unicode="R" glyph-name="R" horiz-adv-x="574" d="M469 602L366 356Q471 357 523 388T611 501Q625 536 628 560V569Q628 638 526 638Q502 638 491 630T469 602ZM851 -220L676 -284Q627 -266 580 -225T492 -119T425 40T399 246Q399 282 402 319H350L261
109Q237 48 208 17T156 -14L67 20H74Q99 20 119 40T164 120L353 566Q371 605 371 631Q371 661 344 675H571Q646 675 690 648T735 566Q735 532 719 499Q701 457 666 424T594 373T530 348T488 339Q486 327 486 321Q485 308 485 282Q485 132 545 -5T697 -209Q727 -230
772 -230Q798 -230 851 -220Z" />
<glyph unicode="S" glyph-name="S" horiz-adv-x="452" d="M329 80V97Q329 139 308 185T265 280T244 379Q244 387 246 403Q251 452 277 512Q307 585 379 635T507 685Q560 685 606 659T653 585Q653 572 647 555Q620 490 557 487L523 559Q536 559 549 571T564 600Q564
621 545 632T500 643H492Q443 643 396 601T341 490V476Q341 441 358 400T396 326T434 243T452 146Q452 46 372 -55T167 -220T-81 -284Q-136 -282 -178 -256T-221 -182Q-221 -131 -182 -96T-102 -60H-99L-68 -102Q-98 -105 -113 -137T-129 -195V-200Q-129 -250 -65
-250Q-20 -249 30 -235T133 -191T234 -109T312 11Q325 41 329 80Z" />
<glyph unicode="T" glyph-name="T" horiz-adv-x="571" d="M295 120L513 633H468Q441 633 414 623T357 588T312 550T266 505H248L359 675H793L776 505H751Q748 575 733 604T669 633H665H614L393 109Q340 -14 288 -14L215 20Q253 20 295 120Z" />
<glyph unicode="U" glyph-name="U" horiz-adv-x="603" d="M753 515L643 254Q529 -14 322 -14Q179 -14 179 110Q179 162 211 241L344 553Q358 588 358 606Q358 618 353 624T336 634T321 640L440 685Q469 683 469 646Q469 613 445 553L310 233Q278 158 274 113Q274
110 274 106T273 99Q273 30 358 30Q429 30 485 75T594 245L708 515Q732 572 735 602V610Q735 624 730 631T719 639T704 640L780 685Q794 685 794 659Q794 612 753 515Z" />
<glyph unicode="V" glyph-name="V" horiz-adv-x="544" d="M680 640L786 685H787Q807 685 807 665Q807 637 747 550L314 -14H303L342 538Q342 575 327 607T288 640L411 685Q433 684 433 609Q433 575 431 562L401 161L678 528Q720 584 720 608Q720 637 680 640Z" />
<glyph unicode="W" glyph-name="W" horiz-adv-x="773" d="M558 311L324 -14H313L354 538Q354 575 339 607T300 640L425 685Q446 684 446 612Q446 604 443 562L410 161L562 372L577 538V541Q578 548 578 561Q578 593 570 616T545 640L645 685Q663 684 663 614Q663
590 661 562L628 161L904 528Q946 576 946 608Q946 637 906 640L1013 685H1015Q1034 685 1034 666Q1034 636 973 550L543 -14H531L558 311Z" />
<glyph unicode="X" glyph-name="X" horiz-adv-x="584" d="M721 743Q743 767 756 776T788 786Q806 786 806 757Q806 731 791 698Q770 640 721 594L498 367L531 93Q540 67 561 44T602 20L481 -14Q464 -13 454 9T440 62L417 288Q-176 -283 -238 -284Q-254 -284 -264
-269T-274 -238Q-274 -231 -272 -225Q-269 -225 -264 -225T-256 -226Q-213 -226 -152 -188Q-56 -115 114 42T413 326L398 486Q391 541 385 570T364 620T326 643L430 686H431Q443 686 458 659T476 606L495 404L703 617Q736 655 744 692Q746 700 746 702V708Q746
723 739 733T721 743Z" />
<glyph unicode="Y" glyph-name="Y" horiz-adv-x="547" d="M700 642L798 685Q821 684 821 671Q821 642 701 529L507 303L426 109Q400 47 368 17T307 -14L242 20Q255 20 262 22T281 34T303 64T328 120L402 294L376 485Q368 533 359 564T332 618T293 642L409 685Q436
682 445 657T461 568L482 347L693 573Q732 612 732 627Q732 631 730 633T724 637T718 639T708 641T700 642Z" />
<glyph unicode="Z" glyph-name="Z" horiz-adv-x="560" d="M295 545Q295 590 337 632T434 675H438H795L780 641L180 38H379Q394 38 408 41T435 53T458 68T480 91T500 114T521 142T542 170L586 108L464 0H34L49 38L667 637H496H489Q445 637 427 628T399 599Q390
581 390 573Q389 567 392 564T404 561H407L334 507Q295 507 295 545Z" />
<glyph unicode="[" glyph-name="bracketleft" horiz-adv-x="300" d="M135 -131H221L211 -156H0L345 662H556L546 637H456Q410 630 392 593L108 -79Q100 -97 100 -106Q100 -131 135 -131Z" />
<glyph unicode="\" glyph-name="backslash" horiz-adv-x="329" d="M244 -14L309 676H376L313 -14H244Z" />
<glyph unicode="]" glyph-name="bracketright" horiz-adv-x="284" d="M-46 -156L-36 -131H54Q99 -126 117 -87L401 585Q409 603 409 613Q409 637 374 637H289L299 662H510L165 -156H-46Z" />
<glyph unicode="^" glyph-name="asciicircum" horiz-adv-x="422" d="M342 586L198 297H130L312 662H372L512 297H444L342 586Z" />
<glyph unicode="_" glyph-name="underscore" horiz-adv-x="435" d="M410 -75L388 -125H-51L-29 -75H410Z" />
<glyph unicode="`" glyph-name="grave" horiz-adv-x="312" d="M297 661H385Q404 660 459 597T533 532Q513 512 484 512Q453 512 426 532Q422 535 375 591T297 661Z" />
<glyph unicode="a" glyph-name="a" horiz-adv-x="491" d="M406 387Q358 387 318 354T255 275T220 186T207 118V110Q207 38 270 38Q295 38 327 60T367 102L446 287Q454 305 455 322V330Q455 355 443 371T406 387ZM108 89Q108 135 133 191T199 297T298 381T416 415Q451
415 475 394L544 415Q567 413 567 390Q567 375 556 345L447 92Q442 79 442 69Q442 55 450 47T472 38H476L370 -14H368Q356 -14 348 -3T340 25Q340 39 348 57Q272 -14 216 -14Q168 -14 138 13T108 89Z" />
<glyph unicode="b" glyph-name="b" horiz-adv-x="477" d="M245 20Q289 20 329 52T396 131T438 222T454 298V306Q454 367 393 367Q366 367 329 339T277 277L189 70Q186 64 186 59Q186 43 202 32T245 20ZM552 364T552 316T524 210T450 103T343 20T219 -14Q177 -14
137 4T97 46Q97 48 99 54L318 573Q329 598 329 617Q329 647 314 647L410 685Q433 682 433 660Q433 642 420 615L299 330Q326 366 366 390T446 415Q492 415 522 390Z" />
<glyph unicode="c" glyph-name="c" horiz-adv-x="431" d="M408 386Q352 386 301 339T224 234T198 136T216 72T266 48Q356 48 398 64L399 46Q299 -14 224 -14H220H217Q175 -14 144 20T113 109Q113 139 126 177T165 258T228 335T315 392T423 415H425H428Q473 415
504 398T536 347Q536 335 530 320Q522 299 505 284T467 268L420 294Q433 294 446 310T460 342V346Q458 364 443 375T408 386Z" />
<glyph unicode="d" glyph-name="d" horiz-adv-x="496" d="M409 387Q361 387 321 354T258 275T223 186T210 118V110Q210 38 273 38Q298 38 330 60T370 102L449 287Q457 305 458 322V330Q458 355 446 371T409 387ZM111 89Q111 135 136 191T202 297T301 381T419 415Q434
415 446 410T465 397T486 374L569 570Q585 607 586 622Q588 641 570 642L661 685H662Q683 685 683 660Q683 641 672 615L450 92Q445 79 445 71Q445 42 477 42H481L373 -14H371Q359 -14 351 -3T343 25Q343 39 351 57Q275 -14 219 -14Q171 -14 141 13T111 89Z" />
<glyph unicode="e" glyph-name="e" horiz-adv-x="413" d="M204 130Q204 48 289 48Q347 48 398 64L403 46Q297 -14 219 -14Q175 -13 143 21T111 107Q111 134 124 172T164 253T228 331T317 391T428 415H430Q462 415 483 401T505 362Q505 306 427 256T215 184Q204
156 204 130ZM252 266L228 220Q335 249 375 275T426 353Q429 360 429 366V367Q429 388 405 388Q328 388 252 266Z" />
<glyph unicode="f" glyph-name="f" horiz-adv-x="348" d="M377 400H491L478 368H365L203 -14Q95 -279 -115 -284Q-198 -284 -240 -200Q-182 -250 -123 -250Q-53 -244 4 -194T120 -14L281 368H216L230 400H294Q348 523 426 604T581 685Q654 684 654 641Q654 635
653 632Q648 612 630 596T592 580L551 607Q564 608 573 618T583 639Q583 656 547 656Q485 656 448 568L377 400Z" />
<glyph unicode="g" glyph-name="g" horiz-adv-x="448" d="M388 363Q346 363 305 329T238 248T194 155T174 81Q173 77 173 69Q173 14 230 14Q263 14 299 45T352 114L430 299Q433 305 433 315Q433 333 421 348T388 363ZM123 110Q129 170 161 238T253 361T380 415Q434
415 449 344Q459 371 485 393T530 415H532L578 378H577H574Q559 378 548 363T521 309L371 -44Q343 -112 300 -161T207 -235T110 -271T12 -284Q-102 -279 -152 -200Q-62 -249 -2 -249H0Q44 -245 81 -233T159 -194T236 -118T304 1L315 27Q289 11 276 4T247 -8T216
-14Q171 -14 147 13T122 90Q122 94 122 100T123 110Z" />
<glyph unicode="h" glyph-name="h" horiz-adv-x="467" d="M285 300L201 100Q183 61 183 40Q183 23 196 20L125 -14Q93 -14 93 16Q93 42 117 100L317 573Q332 610 332 626Q332 647 315 647L409 685Q430 677 430 659Q430 645 418 615L298 331Q370 415 451 415H454Q529
415 529 345Q529 311 506 256L440 100Q423 54 423 40Q423 23 439 20L359 -14Q331 -12 331 22Q331 50 352 100L417 255Q434 293 437 324V332Q437 370 404 370Q382 370 349 352T285 300Z" />
<glyph unicode="i" glyph-name="i" horiz-adv-x="234" d="M401 674Q436 674 436 640Q436 612 409 585T351 558Q336 558 327 567T318 592Q318 619 344 646T401 674ZM304 345L193 84Q183 57 183 46Q183 23 206 20L124 -14Q94 -12 94 22Q94 44 111 87L199 296Q219
336 219 357Q219 373 205 382L293 415Q312 413 312 382Q312 364 304 345Z" />
<glyph unicode="j" glyph-name="j" horiz-adv-x="253" d="M418 674Q434 674 443 665T453 640Q453 612 426 585T368 558Q335 558 335 588Q335 616 361 645T418 674ZM312 415Q331 413 331 387Q331 369 322 345L186 24Q150 -58 115 -114T48 -204T-25 -254T-104 -277T-198
-284Q-254 -284 -310 -263T-393 -200Q-367 -218 -308 -233T-208 -249H-200Q-96 -242 -33 -194T83 -21L215 292Q226 321 227 334V340Q227 364 206 364L312 415Z" />
<glyph unicode="k" glyph-name="k" horiz-adv-x="434" d="M615 -286Q529 -286 446 -223T309 -56T256 155Q256 178 258 189Q258 204 262 232L207 100Q188 52 187 38Q186 20 199 20H201L133 -14Q104 -14 104 23Q104 53 124 100L319 564Q338 607 338 629Q338 644
323 646L412 684Q436 682 436 657Q436 642 425 615L269 247Q337 325 402 370T514 415H517H521Q539 415 551 404T564 376Q564 373 562 363Q539 314 499 314L477 341Q493 344 508 379Q431 376 324 258Q320 236 319 225T318 193Q318 110 354 26T442 -118T551 -214T653
-252Q708 -252 811 -200Q805 -205 790 -218T769 -237T749 -252T723 -267T695 -276T659 -284T615 -286Z" />
<glyph unicode="l" glyph-name="l" horiz-adv-x="231" d="M416 615L191 84Q180 59 180 46Q180 23 204 20L122 -14Q92 -12 92 22Q92 47 109 87L310 564Q330 611 330 634Q330 650 317 650H315L404 685Q426 683 426 658Q426 645 416 615Z" />
<glyph unicode="m" glyph-name="m" horiz-adv-x="695" d="M136 -14Q103 -14 103 22Q103 44 120 87L209 296Q229 339 229 357Q229 372 214 382L303 415Q323 412 323 385Q323 369 313 345L302 320Q375 415 444 415H449Q479 415 502 394T526 337Q526 326 523 312Q614
415 671 415H678Q708 415 731 395T754 338Q754 312 739 277L657 84Q647 57 647 45Q647 23 670 20L588 -14Q558 -12 558 22Q558 44 575 87L656 277Q665 298 667 321V329Q667 350 658 362T634 375H631Q608 374 571 340T508 268L430 84Q419 59 419 41T435 20Q426 10
404 -2T363 -14Q330 -14 330 23Q330 45 347 87L427 277Q438 302 438 321Q439 324 439 329Q439 350 430 362T406 375H404Q373 375 330 331T276 258L202 84Q191 59 191 42Q191 23 208 20Q199 10 177 -2T136 -14Z" />
<glyph unicode="n" glyph-name="n" horiz-adv-x="461" d="M129 -14Q96 -14 96 22Q96 44 113 87L202 296Q222 339 222 357Q222 372 207 382L296 415Q316 412 316 385Q316 369 306 345L295 320Q368 415 437 415H443Q473 415 496 395T519 338Q519 312 504 277L422
84Q412 61 412 46Q412 23 435 20L354 -14Q323 -12 323 22Q323 44 340 87L420 277Q430 297 432 321V329Q432 375 399 375H397Q366 375 323 331T269 258L195 84Q184 59 184 42Q184 23 201 20Q192 10 170 -2T129 -14Z" />
<glyph unicode="o" glyph-name="o" horiz-adv-x="493" d="M115 108Q115 149 136 201T196 301T295 382T425 415Q483 415 519 385T556 300Q556 238 515 166T399 40T243 -14Q187 -14 151 18T115 108ZM258 20Q296 20 344 61T428 166T464 290Q464 292 464 295T465 301Q465
338 451 359T411 381Q348 381 276 289T203 110V100Q203 20 258 20Z" />
<glyph unicode="p" glyph-name="p" horiz-adv-x="452" d="M235 14Q284 14 324 47T387 126T422 215T435 283V291Q435 363 372 363Q346 363 315 341T275 299L197 114Q189 98 187 78Q186 75 186 70Q186 45 198 30T235 14ZM533 311Q533 248 492 173T377 42T225 -14Q203
-14 190 -5T160 27L77 -169Q60 -206 58 -221Q56 -240 74 -241L-16 -284H-18Q-38 -284 -38 -261Q-38 -245 -27 -214L266 473Q273 496 273 502Q273 514 257 514H251L332 556H333Q345 556 353 545T362 517Q362 508 361 504L294 344Q368 415 425 415Q473 415 503 388T533
311Z" />
<glyph unicode="q" glyph-name="q" horiz-adv-x="491" d="M410 363Q351 363 298 308T218 188T191 77Q191 14 253 14Q286 14 322 45T376 114L454 299Q457 305 457 314Q457 333 444 348T410 363ZM123 110Q123 153 143 205T198 304T287 383T401 415Q458 415 473 344Q484
371 510 393T553 415H555L598 380H595Q582 380 573 370T551 331L321 -214Q306 -247 288 -265T254 -284H252L198 -241Q217 -240 230 -222T256 -169L339 27Q313 11 300 4T270 -8T237 -14Q186 -14 155 19T123 110Z" />
<glyph unicode="r" glyph-name="r" horiz-adv-x="364" d="M209 382L293 415Q317 415 317 386Q317 369 307 345Q406 415 465 415H470Q469 411 469 404Q469 364 497 360L418 312Q395 312 395 342Q395 357 402 372H399Q373 372 331 333T267 250L196 84Q187 60 187
46Q187 23 210 20L128 -14Q98 -12 98 22Q98 50 115 87L203 296Q222 340 222 357Q222 372 209 382Z" />
<glyph unicode="s" glyph-name="s" horiz-adv-x="388" d="M166 268Q166 282 176 304T209 352T274 396T373 415H381H387Q416 415 447 402T484 362L387 312Q394 329 394 345Q394 366 383 379T355 392H353Q305 392 275 363T245 312Q245 293 268 274T319 241T370 199T394
137Q394 117 383 93Q340 -14 186 -14Q136 -14 101 -2T65 35Q65 40 68 48Q93 101 172 110Q146 87 146 65Q146 50 159 36T200 20Q256 20 283 43T311 95Q311 137 251 180Q248 182 238 188T224 197T211 206T199 215T188 224T179 234T173 244T168 256T166 268Z" />
<glyph unicode="t" glyph-name="t" horiz-adv-x="267" d="M322 400H409L395 368H309L209 132Q186 72 186 45Q186 20 210 20L126 -14Q95 -12 95 26Q95 58 119 117L258 444Q277 482 277 498T261 516L348 556Q370 556 370 530Q370 511 356 480L322 400Z" />
<glyph unicode="u" glyph-name="u" horiz-adv-x="462" d="M306 345L209 116Q201 95 199 77Q199 76 199 74T198 71Q198 32 241 32H249Q266 32 303 59T352 115L429 296Q448 338 450 357Q451 372 440 382L524 415Q542 400 542 381Q542 364 533 345L422 84Q413 63
413 46Q413 23 435 20L354 -14Q325 -12 325 23Q325 38 331 60Q241 -14 201 -14H194Q162 -14 138 6T113 63Q113 86 127 119L202 296Q222 339 222 357Q222 372 206 382L297 415Q313 402 313 377Q313 362 306 345Z" />
<glyph unicode="v" glyph-name="v" horiz-adv-x="425" d="M466 498Q497 532 534 535Q602 531 602 482Q602 474 601 469Q590 444 552 398L272 36Q261 21 250 9T231 -8T222 -14V-4Q222 2 224 16T227 40Q228 46 228 60L226 270Q225 298 224 312T220 343T209 369T189
378L289 415Q309 415 309 354Q309 331 308 320L303 114L525 414Q542 434 542 448Q542 500 485 500Q482 500 466 498Z" />
<glyph unicode="w" glyph-name="w" horiz-adv-x="609" d="M648 498Q685 535 719 535Q737 534 752 516T767 470Q767 434 737 398L457 36Q419 -14 408 -14V-4Q411 13 414 40V60L419 223L273 36Q262 21 250 9T232 -9T224 -14V-4Q224 0 229 40Q229 43 229 49T230 60V270Q229
298 228 312T224 343T213 369T193 378L293 415Q313 415 313 358Q313 344 311 320L303 114L422 264V266Q422 272 423 293T424 326Q424 376 403 378L484 415Q495 415 495 322Q495 212 488 114L711 414Q722 434 722 448Q722 467 704 482T648 498Z" />
<glyph unicode="x" glyph-name="x" horiz-adv-x="447" d="M288 160Q236 104 207 74T141 15T84 -14T53 -5T41 19V22L108 78L123 50Q137 50 188 94T284 192L264 325Q258 347 241 365T203 385L304 415Q329 412 343 254Q359 270 386 298T430 343T468 378T507 406T538
415Q563 415 563 388V383Q561 372 557 360Q540 323 511 320L500 353Q503 358 503 361Q504 364 502 365T493 368Q477 363 345 221Q353 125 377 20T440 -167T521 -248Q527 -249 540 -249Q624 -249 699 -200Q647 -246 608 -265T508 -284H500H498Q446 -284 405 -235T341
-111T306 32T288 160Z" />
<glyph unicode="y" glyph-name="y" horiz-adv-x="406" d="M440 379Q472 415 514 415Q538 415 538 387Q538 371 530 357L223 -12Q219 -18 197 -47T159 -95T119 -146T72 -198T26 -240T-20 -273T-60 -284Q-83 -282 -103 -268T-159 -204Q-133 -228 -113 -235T-67 -243Q-63
-243 -56 -243T-46 -242H-45Q-14 -242 66 -157T196 2L215 354Q215 377 195 380L273 415Q287 415 287 372Q287 352 284 332Q284 324 283 320L267 90L474 346Q476 354 476 358Q476 380 449 380Q448 380 445 380T440 379Z" />
<glyph unicode="z" glyph-name="z" horiz-adv-x="419" d="M310 415Q342 413 361 403T388 383T403 373Q416 373 448 400H558L545 370L179 44Q204 35 240 -12T308 -111T380 -204T453 -248Q465 -250 474 -250Q554 -250 605 -200Q566 -252 535 -268T454 -284H440Q402
-283 361 -254T287 -183T224 -100T168 -29T123 0H47L59 30L425 358Q408 346 394 346Q378 346 362 366Q345 385 333 385H332Q313 385 295 370T277 342Q277 328 300 327L241 290H240Q219 290 207 303T195 334Q195 362 221 387T310 415Z" />
<glyph unicode="{" glyph-name="braceleft" horiz-adv-x="264" d="M180 -181Q115 -179 86 -165T56 -116Q56 -90 75 -41L150 136Q166 172 166 196Q166 231 114 250Q171 265 197 288T246 363L321 541Q354 619 400 648T527 680H545L540 669Q483 656 452 628T397 546L326
378Q316 355 309 340T293 313T278 295T260 282T240 272T212 262T177 249Q239 231 239 195Q239 173 217 121L146 -47Q129 -89 129 -112Q129 -153 185 -170L180 -181Z" />
<glyph unicode="|" glyph-name="bar" horiz-adv-x="251" d="M265 -14H199V675H265V-14Z" />
<glyph unicode="}" glyph-name="braceright" horiz-adv-x="270" d="M323 661L301 669L306 680Q372 679 401 665T431 617Q431 588 410 540L336 363Q320 321 320 302Q320 282 332 270T373 250Q314 233 288 210T240 136L164 -42Q131 -120 85 -149T-41 -181H-59L-54
-170Q3 -157 34 -129T89 -47L160 121Q186 184 216 209T308 250Q276 259 262 271T248 304Q248 328 269 378L340 546Q357 586 357 611Q357 634 344 647L323 661Z" />
<glyph unicode="~" glyph-name="asciitilde" d="M266 320Q306 320 346 286Q382 257 403 253Q410 252 417 252Q453 252 496 303H566Q558 268 502 227T412 186H410Q369 186 329 220Q313 233 307 237T287 248T257 254Q220 254 200 202H131Q152 255 193 287T266 320Z" />
</font>
</defs>
</svg>
