<?xml version="1.0" standalone="no"?> <!DOCTYPE svg PUBLIC "-//W3C//DTD SVG 1.0//EN" "http://www.w3.org/TR/2001/REC-SVG-20010904/DTD/svg10.dtd" > <svg xmlns="http://www.w3.org/2000/svg" width="100%" height="100%">
<defs >
<font id="aurelisscriptno2-italic" horiz-adv-x="528" ><font-face
    font-family="AurelisADFScriptNo2Std-Italic"
    units-per-em="1000"
    panose-1="3 2 5 3 7 0 0 9 0 3"
    ascent="940"
    descent="-286"
    alphabetic="0" />
<missing-glyph horiz-adv-x="801" d="M301 0V700H801V0H301ZM551 395L721 650H381L551 395ZM581 350L751 95V605L581 350ZM381 50H721L551 305L381 50ZM351 605V95L521 350L351 605Z" />
<glyph unicode=" " glyph-name="space" horiz-adv-x="315" />
<glyph unicode="!" glyph-name="exclam" horiz-adv-x="295" d="M106 25Q106 51 132 74T189 98Q206 98 216 90T226 66Q226 39 201 15T140 -9Q106 -3 106 25ZM450 685Q480 685 480 651Q480 624 464 591L230 176H216L354 594Q372 633 398 659T450 685Z" />
<glyph unicode="&quot;" glyph-name="quotedbl" horiz-adv-x="386" d="M582 676Q612 676 612 653Q612 623 548 543T430 432Q472 482 486 514T504 577T519 635Q526 652 543 664T582 676ZM404 676Q435 676 435 653Q435 622 371 543T252 432Q294 482 308 514T326
577T341 635Q348 652 365 664T404 676Z" />
<glyph unicode="#" glyph-name="numbersign" horiz-adv-x="554" d="M463 271L543 405H403L322 271H463ZM524 271H629L604 216H489L361 0H300L428 216H288L157 0H96L227 216H114L139 271H261L342 405H227L252 460H376L498 662H559L437 460H576L698 662H759L637
460H739L714 405H604L524 271Z" />
<glyph unicode="$" glyph-name="dollar" horiz-adv-x="543" d="M182 156Q195 156 209 146T224 121Q224 116 223 114Q203 113 185 96T166 64Q166 42 215 30L349 330Q275 382 275 445Q275 514 338 578T501 672L536 750H570L539 681Q553 683 561 684Q568 685 582
685Q605 685 616 684L645 750H679L648 680Q697 669 729 646T761 587Q761 557 737 524T660 487Q613 491 613 525Q613 541 620 559Q637 559 652 570T667 599Q667 623 629 637L511 373Q594 303 594 232Q594 201 579 168Q547 100 483 56T342 -6L302 -96H268L306 -12Q274
-14 260 -14H230L193 -96H159L197 -12Q62 -1 62 53Q62 88 101 122T182 156ZM364 42Q410 62 440 105T470 190Q470 220 453 243L364 42ZM375 312L247 25Q256 22 278 22Q302 22 323 28L430 268L375 312ZM479 623Q438 605 414 576T389 513Q389 486 407 461L479 623ZM595
638L567 643Q542 643 520 637L430 435L485 391L595 638Z" />
<glyph unicode="%" glyph-name="percent" horiz-adv-x="771" d="M589 15Q636 15 680 68T748 184T772 285Q772 335 730 335H729Q684 335 639 284T569 172T544 68Q544 15 589 15ZM474 84Q474 140 510 204T609 315T741 362H742Q793 362 817 336T841 266Q841 209 806
145T707 35T575 -12Q474 -12 474 84ZM337 326Q382 326 426 378T495 492T520 595Q520 647 478 647H477Q431 647 386 597T316 484T291 380Q291 326 337 326ZM221 393Q221 451 257 516T358 628T490 675H491Q541 675 565 649T589 579Q589 522 554 458T455 346T322 298Q270
298 246 324T221 393ZM938 671L141 -35L123 -11L915 692L938 671Z" />
<glyph unicode="&amp;" glyph-name="ampersand" horiz-adv-x="736" d="M400 343L390 338Q381 334 372 330T348 317T320 301T290 280T260 255T233 227T210 195T196 160T190 122Q190 85 212 62T276 39Q337 39 453 104Q412 202 400 343ZM646 644Q583 644 544 588T504
442Q504 425 505 416Q565 441 606 468T667 519T693 562T701 597Q701 644 646 644ZM553 178Q617 226 659 270T701 339Q701 358 662 362L738 414L782 380Q777 342 720 281T565 150Q598 58 686 58Q731 58 766 80Q721 29 685 8T609 -13H606Q523 -13 468 78Q322 -13
200 -13Q139 -13 106 8T72 72Q72 96 82 124T120 192T206 274T350 355L400 377Q406 474 427 522Q455 586 521 631T658 676Q703 676 730 657T757 603Q757 582 745 555Q720 499 663 459T507 384Q517 270 553 178Z" />
<glyph unicode="&apos;" glyph-name="quotesingle" horiz-adv-x="207" d="M404 676Q435 676 435 653Q435 622 371 543T252 432Q294 482 308 514T326 577T341 635Q348 652 365 664T404 676Z" />
<glyph unicode="(" glyph-name="parenleft" horiz-adv-x="317" d="M598 676L600 660Q458 578 385 495T242 255Q169 91 169 3Q169 -86 234 -161L215 -177Q163 -139 136 -76T108 65Q108 158 149 252Q268 519 598 676Z" />
<glyph unicode=")" glyph-name="parenright" horiz-adv-x="317" d="M-60 -177L-62 -161Q78 -83 153 1T298 244Q368 400 368 496Q368 585 304 660L324 676Q434 577 434 437Q434 395 423 345T379 224T293 88T150 -49T-60 -177Z" />
<glyph unicode="*" glyph-name="asterisk" horiz-adv-x="459" d="M579 460Q573 447 558 432T529 413Q495 443 409 447L440 384L376 414Q383 336 409 286Q402 270 386 254T355 232Q341 237 327 253T304 286Q332 330 340 414L272 383L304 446Q221 442 185 413Q173
417 158 432T136 460Q143 474 158 489T185 507Q221 480 303 475L272 544L341 514Q335 578 306 624Q312 640 327 656T356 678Q388 667 411 624Q379 581 375 514L440 544L410 474Q491 479 530 507Q542 504 556 490T579 460Z" />
<glyph unicode="+" glyph-name="plus" horiz-adv-x="489" d="M82 246H268V435H335V246H517L516 176H334V-14H267V176H81L82 246Z" />
<glyph unicode="," glyph-name="comma" horiz-adv-x="242" d="M58 22Q58 48 84 75T151 102Q176 102 191 89T206 53Q206 13 157 -45T9 -141V-122Q119 -66 142 -16Q148 -4 133 -2Q127 -3 120 -4Q106 -6 103 -6Q58 -6 58 22Z" />
<glyph unicode="-" glyph-name="hyphen" horiz-adv-x="400" d="M85 246H439L420 176H66L85 246Z" />
<glyph unicode="." glyph-name="period" horiz-adv-x="235" d="M71 22Q71 47 99 73T160 100Q177 100 188 92T199 67Q199 40 172 15T109 -11Q93 -11 82 -2T71 22Z" />
<glyph unicode="/" glyph-name="slash" horiz-adv-x="332" d="M553 676H623L76 -14H5L553 676Z" />
<glyph unicode="0" glyph-name="zero" horiz-adv-x="566" d="M577 657Q460 657 322 365L306 329Q247 195 233 117Q230 96 230 80Q230 12 286 12Q409 12 549 330Q613 472 626 556Q629 577 629 594Q629 641 598 653L577 657ZM164 166Q176 239 216 327T312 496T444
629T592 683Q697 683 697 556Q697 524 692 498Q679 422 640 334T545 168T418 39T275 -13Q220 -13 190 19T160 113Q160 141 164 166Z" />
<glyph unicode="1" glyph-name="one" horiz-adv-x="285" d="M288 600L477 687L493 676L236 101Q228 86 224 69V59Q224 28 257 27L245 0H55L67 27Q123 30 159 106L356 547Q365 572 369 589Q371 603 364 607L290 576L288 600Z" />
<glyph unicode="2" glyph-name="two" horiz-adv-x="512" d="M58 0L74 35Q88 67 145 121T276 234T421 354T546 478T606 585Q607 590 607 600Q607 653 537 653Q450 653 387 568L316 567Q355 623 416 655T543 687Q605 687 637 662T670 593Q670 586 668 570Q663 543
651 519Q630 472 559 409T413 295T268 182T177 75H469L450 0H58Z" />
<glyph unicode="3" glyph-name="three" horiz-adv-x="491" d="M211 20Q303 21 372 98T455 259Q457 275 457 282Q457 368 330 369L347 402H351Q501 402 568 546Q577 569 580 586Q582 598 582 601Q582 653 512 653Q467 653 428 629T369 561V559L368 558V556H301Q337
614 401 650T534 687Q585 687 615 664T645 601Q645 589 644 583Q636 537 595 482T470 388Q542 363 542 293Q542 281 539 266Q526 184 469 119T336 20T186 -13Q129 -13 97 11T64 81Q64 88 66 102V105H136Q136 102 136 96T135 87Q135 20 211 20Z" />
<glyph unicode="4" glyph-name="four" horiz-adv-x="492" d="M546 570Q413 418 185 258H406L546 570ZM479 258H574L545 194H450L391 62Q386 45 386 44V38Q386 20 406 20Q375 -13 326 -13Q303 -13 303 11V20Q306 36 313 50L377 194H115L144 258Q242 321 403 466T593
677H666L479 258Z" />
<glyph unicode="5" glyph-name="five" horiz-adv-x="469" d="M217 20Q299 21 367 88T449 232Q452 244 452 255Q452 361 257 361H241L415 677H712L664 602H421L311 401Q543 399 543 278Q543 271 541 253Q529 181 475 119T345 22T192 -13Q135 -13 103 11T70 81Q70
88 72 102V105H142Q142 102 142 96T141 87Q141 20 217 20Z" />
<glyph unicode="6" glyph-name="six" horiz-adv-x="544" d="M282 20Q352 20 418 105T499 275Q501 293 501 301Q501 370 423 370Q355 370 294 293T217 125Q214 108 214 94Q214 20 282 20ZM148 155Q157 213 188 283T271 425T386 554T530 650T693 687H700L684 652Q618
652 559 626T455 554T376 459T316 351Q389 416 467 416Q469 416 473 416T479 415Q533 415 561 390T590 317Q590 309 588 287Q580 241 554 191T488 94T390 17T267 -13Q207 -13 176 19T144 110Q144 134 148 155Z" />
<glyph unicode="7" glyph-name="seven" horiz-adv-x="469" d="M294 603L337 677H729L717 650Q706 626 572 488T308 210T172 36Q170 29 174 25T192 20Q186 6 162 -4T116 -15Q88 -15 88 9Q88 14 89 17Q90 32 104 53Q114 76 232 204T470 458T599 603H294Z" />
<glyph unicode="8" glyph-name="eight" horiz-adv-x="498" d="M540 653Q481 653 439 616T388 529Q386 517 386 511Q386 464 442 400L454 406Q508 435 544 473T592 537T608 586Q610 598 610 601Q610 653 540 653ZM265 20Q331 20 376 68T430 173Q432 187 432 195Q432
238 398 279L363 323Q303 284 269 248T207 159Q194 127 190 105Q189 98 189 86Q189 20 265 20ZM672 583Q653 466 462 382Q521 308 521 245Q521 227 519 219Q504 132 429 60T240 -13Q183 -13 150 11T117 81Q117 88 119 102Q122 126 134 151Q159 205 202 243T347
343Q296 425 296 465Q296 470 298 480Q310 556 387 621T562 687Q613 687 643 664T673 601Q673 589 672 583Z" />
<glyph unicode="9" glyph-name="nine" horiz-adv-x="543" d="M558 652Q518 652 480 626T414 560T369 480T345 406Q343 388 343 382Q343 312 421 312Q491 312 552 390T627 554Q629 572 629 581Q629 652 558 652ZM695 524Q686 470 656 402T575 260T461 126T316 26T148
-13H146L161 20Q201 21 244 36T338 84T438 180T527 329Q453 265 376 265H364Q311 265 283 290T254 364Q254 374 256 394Q264 438 288 486T350 581T447 657T574 687Q634 687 666 656T699 566Q699 554 695 524Z" />
<glyph unicode=":" glyph-name="colon" horiz-adv-x="239" d="M73 22Q73 47 101 73T162 100Q179 100 190 92T201 67Q201 40 174 15T111 -11Q95 -11 84 -2T73 22ZM233 381Q233 406 260 432T321 459Q338 459 349 450T360 425Q360 398 333 373T271 348Q255 348 244
357T233 381Z" />
<glyph unicode=";" glyph-name="semicolon" horiz-adv-x="243" d="M224 381Q224 408 252 433T312 459Q328 459 339 450T351 426Q351 398 324 373T262 348Q246 348 235 357T224 381ZM66 30Q66 54 92 78T156 102Q181 102 196 89T211 53Q211 5 155 -52T14 -141V-122Q124
-67 147 -16Q153 -3 138 -2Q132 -3 125 -4Q111 -6 108 -6Q66 0 66 30Z" />
<glyph unicode="&lt;" glyph-name="less" horiz-adv-x="626" d="M620 62L617 -10L86 220V286L620 516V444L179 253L620 62Z" />
<glyph unicode="=" glyph-name="equal" horiz-adv-x="679" d="M147 186H676L675 120H145L147 186ZM147 386H676L675 320H146L147 386Z" />
<glyph unicode="&gt;" glyph-name="greater" horiz-adv-x="623" d="M679 220L144 -10L147 62L587 253L146 444L147 516L679 286V220Z" />
<glyph unicode="?" glyph-name="question" horiz-adv-x="469" d="M179 22Q179 47 206 73T268 99Q304 99 304 68Q304 43 280 18T219 -8Q179 -8 179 22ZM270 495Q270 548 343 612T515 676Q573 676 613 651T653 578Q653 563 649 547T639 517T621 486T600 458T573
430T547 405T517 379T490 358T463 336T439 318Q425 307 412 294T390 273T368 246T351 222T331 192T312 164H274Q289 195 309 224T344 270T389 319T436 370Q556 505 556 579Q556 609 538 627T485 646Q447 646 408 628T357 584Q340 550 340 534Q340 513 364 510Q345
469 303 469Q270 469 270 495Z" />
<glyph unicode="@" glyph-name="at" horiz-adv-x="789" d="M462 187T513 187T614 263T676 426Q673 462 641 464L619 461Q555 444 509 377T462 247Q462 187 513 187ZM622 654Q521 654 438 595T311 450T268 273Q268 164 339 95T529 25Q654 25 743 73Q733 61 713
45T638 7T522 -14H512Q368 -14 274 70T180 281Q180 383 245 477T414 628T627 685Q757 685 841 613T926 431Q926 325 851 234T688 143Q651 143 628 161T604 212V216Q530 148 461 144Q428 144 407 168T385 232Q385 284 419 348T512 460T633 508Q690 508 700 456L717
494H790L681 240Q676 227 676 222Q674 212 674 207Q674 176 709 176Q765 176 823 252T881 416Q881 516 806 585T622 654Z" />
<glyph unicode="A" glyph-name="A" horiz-adv-x="682" d="M522 532L278 257H521L522 532ZM802 -220L572 -284Q548 -284 536 -266T520 -220L518 216H243L142 99Q112 65 112 43Q112 20 142 20Q135 6 108 -4T62 -14H58H53Q38 -14 27 -7T16 11Q16 14 18 20L504 566Q513
576 522 599T531 630Q531 648 513 651Q557 685 631 685L633 -164Q635 -200 650 -216T706 -232Q740 -232 802 -220Z" />
<glyph unicode="B" glyph-name="B" horiz-adv-x="630" d="M458 366Q512 366 557 387T630 438T672 501T687 559Q687 638 548 638H502Q480 638 466 608L358 366H458ZM340 326L230 78Q225 68 225 58Q225 37 277 37Q388 37 453 71T551 179Q566 212 566 238Q566 289
514 307T340 326ZM688 242Q688 212 670 175T615 98T511 31T358 0H24Q64 9 88 32T137 109L340 566Q360 606 360 631Q360 663 325 675H582Q797 675 797 569Q797 497 725 428T567 348Q688 316 688 242Z" />
<glyph unicode="C" glyph-name="C" horiz-adv-x="700" d="M705 117Q705 77 651 46T526 1T391 -14H383Q269 -14 209 35T148 172Q148 242 185 325Q255 482 398 576T693 676H712Q783 676 819 666T886 632Q914 599 914 571Q914 533 878 491T802 448L763 496Q788 497
807 519T827 564Q827 569 825 575Q815 603 790 619T704 636H695Q609 636 529 590T394 474T307 325T274 180Q274 113 312 72T436 30Q494 30 532 37T620 69Q623 78 623 83Q623 102 603 102Q610 121 632 135T676 150Q705 146 705 117Z" />
<glyph unicode="D" glyph-name="D" horiz-adv-x="733" d="M471 619L459 599L227 78Q221 64 221 56Q221 37 262 37Q597 37 728 333Q763 411 763 473Q763 550 706 594T530 638Q486 638 471 619ZM134 109L337 566Q358 611 358 634Q358 660 329 675H577Q724 675 800
622T876 474Q876 408 842 333Q769 169 620 85T290 0H28Q67 14 91 38T134 109Z" />
<glyph unicode="E" glyph-name="E" horiz-adv-x="609" d="M714 582Q750 587 750 618Q750 637 664 637H643H512Q504 637 499 637T490 635T483 633T477 627T473 621T468 613T462 603L364 381H446Q510 381 537 397T603 476H627L524 244H500Q512 277 512 296Q512 321
493 330T429 340H345L230 80Q220 58 220 51Q220 41 236 39T307 37H336H342Q379 37 405 39T455 49T490 61T521 84T545 107T575 140L618 102Q559 3 502 0H90L41 21Q101 37 136 109L339 566Q357 608 357 631Q357 651 333 675H796Q823 674 837 657T852 615Q852 598
847 588Q836 566 808 550T755 532L714 582Z" />
<glyph unicode="F" glyph-name="F" horiz-adv-x="572" d="M619 476L516 244H492Q501 278 501 297Q501 324 483 332T418 340H346L244 109Q190 -14 137 -14L41 20Q70 22 92 41T141 120L340 566Q359 611 359 631T333 675H774Q792 674 802 658T818 619T829 587L742
533Q721 533 712 549T701 584T689 620T655 637H512H508Q477 637 463 603L365 381H437Q501 381 530 399T595 476H619Z" />
<glyph unicode="G" glyph-name="G" horiz-adv-x="741" d="M145 168Q145 250 193 340T317 505T498 627T710 676Q781 676 817 666T884 632Q912 599 912 571Q912 533 876 491T800 448L761 496Q786 497 805 519T825 564Q825 569 823 575Q813 603 788 619T702 636H693Q553
636 465 560T307 326Q269 239 269 175Q269 104 315 65T450 26Q507 26 555 42T616 85L670 207Q678 223 678 234Q678 275 597 278Q612 310 669 327T765 344L843 284Q803 281 778 219L705 56Q665 31 576 9T410 -14Q275 -14 210 34T145 168Z" />
<glyph unicode="H" glyph-name="H" horiz-adv-x="657" d="M128 109L325 553Q340 586 340 607Q340 639 304 644L444 685Q469 683 469 661Q469 636 432 553L346 360H631L717 553Q732 586 732 607Q732 639 696 644L836 685Q861 683 861 661Q861 633 824 553L627 109Q608
70 608 47Q608 22 636 20L538 -14Q522 -14 512 -1T501 37Q501 70 520 109L611 314H326L235 109Q216 67 216 47Q216 22 245 20L147 -14Q130 -14 120 -1T109 37Q109 70 128 109Z" />
<glyph unicode="I" glyph-name="I" horiz-adv-x="265" d="M128 109L325 553Q340 586 340 607Q340 639 304 644L444 685Q469 683 469 661Q469 633 432 553L235 109Q216 67 216 47Q216 22 245 20L147 -14Q130 -14 120 -1T109 37Q109 70 128 109Z" />
<glyph unicode="J" glyph-name="J" horiz-adv-x="380" d="M566 571L273 -87Q231 -181 164 -232T9 -284H0Q-61 -284 -117 -263T-189 -200Q-166 -217 -113 -230T-12 -244H-3Q36 -244 80 -212T147 -132L451 553Q470 594 470 615Q470 621 469 625T465 632T460 636T452
639T445 640T436 640L428 641Q497 672 562 685Q592 683 592 656Q592 626 566 571Z" />
<glyph unicode="K" glyph-name="K" horiz-adv-x="673" d="M703 642L815 685Q831 682 845 673T860 649Q860 646 858 640Q828 622 659 510T459 377Q466 198 529 35T678 -205Q706 -230 754 -230Q784 -230 832 -221L651 -284Q603 -284 552 -237T458 -111T386 82T352
320L320 301L235 109Q216 67 216 47Q216 22 245 20L147 -14Q104 -14 104 28Q104 58 128 109L325 553Q340 586 340 607Q340 639 304 644L444 685Q469 683 469 661Q469 633 432 553L344 354Q448 416 580 504T719 612Q723 619 723 626Q723 642 703 642Z" />
<glyph unicode="L" glyph-name="L" horiz-adv-x="588" d="M588 154L624 98L484 0H23Q67 17 88 38T134 109L331 553Q346 584 346 607Q346 638 310 644L449 685Q475 683 475 660Q475 634 438 553L241 109Q222 67 222 45Q236 39 288 39H359H361Q477 39 588 154Z" />
<glyph unicode="M" glyph-name="M" horiz-adv-x="926" d="M762 120L964 572L441 0H426L406 547L227 147Q193 68 162 28T111 -14Q93 -14 80 -5T66 20Q95 20 122 46T182 147L376 581Q379 590 379 598Q379 615 369 627T342 639L464 685Q490 684 504 660T520 603L537
157L958 621Q992 657 1014 670T1063 685Q1093 683 1093 651Q1093 618 1062 552L865 109Q845 66 845 44Q845 20 870 20L766 -14Q735 -12 735 22Q735 55 762 120Z" />
<glyph unicode="N" glyph-name="N" horiz-adv-x="752" d="M874 515L772 286Q712 151 712 100Q712 58 750 58L621 -14L403 539L228 147Q194 67 160 27T107 -14Q54 -14 45 20H50Q125 20 182 147L372 572Q374 578 374 582Q374 599 357 617T321 640L439 685Q463 684
477 668T505 622L677 176L828 515Q850 564 850 592Q850 599 849 605T844 615T838 623T829 629T820 633T809 636T799 640L905 685Q919 673 919 653Q919 618 874 515Z" />
<glyph unicode="O" glyph-name="O" horiz-adv-x="769" d="M392 22Q476 22 555 78T687 214T772 376T804 517Q804 584 767 616T673 649Q588 649 509 594T378 461T295 300T264 157Q264 93 297 58T392 22ZM154 183Q154 263 197 351T311 514T483 636T689 685Q793 685
854 635T915 493Q915 430 888 360T809 224T693 105T543 19T372 -14Q273 -14 214 38T154 183Z" />
<glyph unicode="P" glyph-name="P" horiz-adv-x="596" d="M425 341Q490 341 540 361T618 408T662 467T684 521T689 555Q689 638 532 638Q503 638 491 621L482 604L366 344Q400 341 425 341ZM805 558Q805 532 794 501T753 434T682 369T572 321T419 301Q387 301
348 304L262 109Q208 -14 156 -14L58 18Q88 18 108 36T159 120L358 566Q384 624 384 644Q384 663 358 675H596Q695 675 750 645T805 558Z" />
<glyph unicode="Q" glyph-name="Q" horiz-adv-x="769" d="M394 22Q464 22 529 58T643 152T727 275T782 404T801 513Q801 578 768 613T676 649Q579 649 478 569T309 335Q261 226 261 152Q261 89 295 56T394 22ZM148 176Q148 253 192 342T309 508T483 634T689 685Q795
685 853 632T911 487Q911 440 894 384T840 265T753 149T627 54T467 -2Q458 -22 458 -41Q458 -112 558 -164T806 -216H812L649 -284Q602 -283 555 -270T455 -226T358 -138T283 -1Q148 48 148 176Z" />
<glyph unicode="R" glyph-name="R" horiz-adv-x="689" d="M483 602L374 356Q513 357 579 388T683 501Q698 534 698 560Q698 638 552 638Q521 638 507 630T483 602ZM936 -220L751 -284Q695 -264 641 -218T539 -99T460 83T426 319H357L264 109Q238 48 207 17T153
-14L59 20H67Q93 20 114 40T161 120L360 566Q378 605 378 631Q378 662 351 675H609Q814 675 814 566Q814 538 797 499Q778 457 740 424T660 373T587 348T537 339V321Q537 161 604 11T774 -209Q806 -230 852 -230Q879 -230 936 -220Z" />
<glyph unicode="S" glyph-name="S" horiz-adv-x="543" d="M418 80Q418 112 402 144T363 205T318 262T279 327T263 403Q263 455 291 512Q324 585 414 635T582 685Q651 685 706 659T761 585Q761 572 755 555Q727 490 660 487L620 559Q637 559 652 570T667 599Q667
620 640 631T578 643H567Q500 643 441 601T382 490Q382 459 399 426T440 363T490 301T532 228T549 146Q549 70 497 -7T358 -146T152 -245T-93 -284Q-165 -282 -214 -257T-264 -182Q-264 -132 -223 -96T-140 -60H-136L-99 -102Q-133 -105 -150 -136T-167 -195Q-167
-250 -76 -250Q-14 -249 52 -235T187 -191T312 -109T402 11Q418 44 418 80Z" />
<glyph unicode="T" glyph-name="T" horiz-adv-x="620" d="M308 120L537 633H480Q447 633 416 623T353 588T304 550T256 505H237L354 675H854L836 505H810Q807 575 789 604T713 633H708H644L411 109Q356 -14 301 -14L215 20Q264 20 308 120Z" />
<glyph unicode="U" glyph-name="U" horiz-adv-x="737" d="M861 515L745 254Q682 113 589 50T357 -14Q172 -14 172 110Q172 164 206 241L345 553Q360 587 360 606Q360 618 355 624T337 634T321 640L447 685Q477 683 477 646Q477 612 452 553L310 233Q277 158 277
113Q277 30 400 30Q497 30 568 75T694 245L814 515Q838 570 838 602Q838 620 829 629T813 639T791 640L888 685Q904 685 904 659Q904 617 861 515Z" />
<glyph unicode="V" glyph-name="V" horiz-adv-x="637" d="M768 640L882 685H884Q904 685 904 665Q904 634 840 550L356 -14H340L328 538Q328 575 313 607T271 640L401 685Q438 684 441 562L451 161L768 528Q812 582 812 608Q812 637 768 640Z" />
<glyph unicode="W" glyph-name="W" horiz-adv-x="948" d="M642 311L365 -14H349L337 538Q337 575 322 607T280 640L411 685Q447 684 450 562L460 161L641 372L637 538V541Q637 577 621 608T580 640L711 685Q747 684 750 562L760 161L1078 528Q1121 578 1121 608Q1121
637 1077 640L1192 685H1194Q1213 685 1213 666Q1213 635 1150 550L666 -14H650L642 311Z" />
<glyph unicode="X" glyph-name="X" horiz-adv-x="738" d="M831 743Q859 767 876 776T919 786Q945 786 945 755Q945 731 930 698Q907 638 852 594L576 367L656 93Q666 67 688 44T731 20L603 -14Q580 -13 563 9T538 62L475 288Q-264 -283 -331 -284Q-348 -284 -358
-269T-368 -238Q-368 -228 -366 -225Q-364 -225 -359 -225T-351 -226Q-304 -226 -240 -188Q-120 -114 96 45T465 326L421 486Q395 569 372 605T301 643L439 686H440Q457 686 481 659T513 606L566 404L824 617Q865 656 870 692Q871 696 871 702Q871 719 860 731T831
743Z" />
<glyph unicode="Y" glyph-name="Y" horiz-adv-x="640" d="M796 642L899 685Q923 684 923 671Q923 661 913 645T880 607T842 570T797 529L541 303L455 109Q428 47 394 17T330 -14L250 20Q266 20 276 22T299 34T325 64T352 120L430 294L377 485Q364 526 357 547T337
593T310 630T278 642L401 685Q435 682 449 658T481 568L538 347L789 573Q829 612 829 627Q829 631 827 633T821 637T814 639T805 641T796 642Z" />
<glyph unicode="Z" glyph-name="Z" horiz-adv-x="659" d="M293 545Q293 590 338 632T440 675H445H904L888 641L177 38H447Q465 38 481 41T510 49T536 63T559 79T580 100T599 121T619 145T638 170L684 108L556 0H18L35 38L760 637H528H519Q460 637 437 628T403
599T393 573Q393 561 413 561H418L335 507Q293 507 293 545Z" />
<glyph unicode="[" glyph-name="bracketleft" horiz-adv-x="305" d="M145 -131H236L225 -156H3L367 662H589L578 637H483Q436 630 416 593L117 -79Q110 -94 110 -106Q110 -131 145 -131Z" />
<glyph unicode="\" glyph-name="backslash" horiz-adv-x="334" d="M244 -14L312 676H382L316 -14H244Z" />
<glyph unicode="]" glyph-name="bracketright" horiz-adv-x="305" d="M-58 -156L-47 -131H48Q95 -126 114 -87L413 585Q421 603 421 613Q421 637 385 637H295L306 662H528L164 -156H-58Z" />
<glyph unicode="^" glyph-name="asciicircum" horiz-adv-x="484" d="M339 586L187 297H116L308 662H371L559 297H488L339 586Z" />
<glyph unicode="_" glyph-name="underscore" horiz-adv-x="510" d="M481 -75L458 -125H-66L-43 -75H481Z" />
<glyph unicode="`" glyph-name="grave" horiz-adv-x="309" d="M290 661H382Q402 660 460 597T538 532Q516 512 486 512Q454 512 426 532Q421 535 371 591T290 661Z" />
<glyph unicode="a" glyph-name="a" horiz-adv-x="550" d="M442 387Q395 387 355 365T289 310T246 239T220 169T212 118Q212 38 301 38Q335 38 375 60T423 102L506 287Q514 306 514 322Q514 350 495 368T442 387ZM108 89Q108 135 135 191T206 298T316 381T452 415Q498
415 532 394L609 415Q633 414 633 390Q633 374 621 345L507 92Q502 79 502 69Q502 54 511 46T534 38H537L426 -14H424Q412 -14 404 -3T395 25T403 57Q310 -14 237 -14Q176 -14 142 12T108 89Z" />
<glyph unicode="b" glyph-name="b" horiz-adv-x="542" d="M270 20Q324 20 372 52T449 131T495 222T512 298Q512 367 426 367Q389 367 343 339T282 277L190 70Q188 64 188 61Q188 45 210 33T270 20ZM616 316Q616 268 586 210T505 103T384 20T238 -14Q185 -14 139
4T93 46Q93 48 95 54L326 573Q337 595 337 617Q337 647 321 647L423 685Q447 682 447 660Q447 642 433 615L306 330Q338 366 389 390T490 415Q547 415 581 390T616 316Z" />
<glyph unicode="c" glyph-name="c" horiz-adv-x="474" d="M442 386Q391 386 344 358T268 290T221 208T203 136Q203 95 228 72T294 48Q396 48 441 64L442 46Q338 -14 246 -14H240H237Q184 -14 149 20T114 109Q114 147 137 197T201 297T311 381T460 415H462H466Q517
415 551 398T586 347Q586 335 580 320Q571 299 553 284T513 268L464 294Q478 294 492 310T506 342V346Q504 364 486 375T442 386Z" />
<glyph unicode="d" glyph-name="d" horiz-adv-x="553" d="M442 387Q395 387 355 365T289 310T246 239T220 169T212 118Q212 38 301 38Q335 38 375 60T423 102L506 287Q514 306 514 322Q514 350 495 368T442 387ZM108 89Q108 135 135 191T206 298T316 381T452 415Q482
415 500 406T545 374L632 570Q649 606 649 622Q649 641 626 642L729 685H730Q753 685 753 660Q753 644 741 615L507 92Q503 81 503 71Q503 42 535 42H539L426 -14H424Q412 -14 404 -3T395 25T403 57Q310 -14 237 -14Q176 -14 142 12T108 89Z" />
<glyph unicode="e" glyph-name="e" horiz-adv-x="449" d="M261 266L236 220Q364 249 410 275T468 353Q470 363 470 366Q470 388 439 388Q341 388 261 266ZM210 130Q210 48 323 48Q386 48 439 64L444 46Q385 15 340 1T240 -14Q184 -13 149 21T113 107Q113 134 127
172T171 253T241 332T340 391T466 415H468Q505 415 528 401T551 362Q551 305 465 255T222 184Q210 154 210 130Z" />
<glyph unicode="f" glyph-name="f" horiz-adv-x="340" d="M373 400H502L488 368H360L190 -14Q77 -280 -178 -284Q-277 -284 -321 -200Q-261 -250 -191 -250Q-100 -244 -30 -194T102 -14L272 368H186L200 400H286Q343 524 426 604T597 685Q673 684 673 641Q673
635 672 632Q667 611 648 596T608 580L565 607Q578 608 588 618T598 639Q598 656 560 656Q487 656 448 568L373 400Z" />
<glyph unicode="g" glyph-name="g" horiz-adv-x="546" d="M463 363Q406 363 355 329T274 248T227 155T209 81Q209 14 293 14Q338 14 383 45T445 114L527 299Q529 303 529 310Q529 329 510 346T463 363ZM136 110Q136 153 157 205T217 304T315 383T445 415Q518 415
547 344Q558 371 586 393T632 415H634L683 378H682H679Q652 378 623 309L465 -44Q363 -280 35 -284Q-58 -281 -117 -257T-199 -200Q-159 -221 -95 -235T11 -249H15Q74 -245 123 -233T223 -194T318 -118T394 1L406 27Q372 11 357 4T320 -8T278 -14Q211 -14 174 19T136
110Z" />
<glyph unicode="h" glyph-name="h" horiz-adv-x="526" d="M293 300L204 100Q186 64 186 45Q186 23 207 20L124 -14Q91 -14 91 16Q91 43 116 100L326 573Q342 608 342 626Q342 647 324 647L423 685Q445 677 445 659Q445 645 433 615L306 331Q391 415 497 415H502Q589
415 589 345Q589 310 565 256L496 100Q478 56 478 40Q478 23 495 20L411 -14Q381 -12 381 22Q381 52 403 100L472 255Q490 296 490 324Q490 370 442 370Q413 370 371 352T293 300Z" />
<glyph unicode="i" glyph-name="i" horiz-adv-x="243" d="M331 592Q331 619 359 646T419 674Q436 674 446 665T456 640Q456 612 428 585T367 558Q350 558 341 567T331 592ZM317 345L200 84Q190 61 190 46Q190 23 214 20L128 -14Q96 -12 96 22Q96 45 114 87L207
296Q228 338 228 357Q228 372 213 382L305 415Q326 413 326 382Q326 366 317 345Z" />
<glyph unicode="j" glyph-name="j" horiz-adv-x="233" d="M328 592Q328 620 356 647T416 674Q433 674 443 665T453 640Q453 612 425 585T364 558Q347 558 338 567T328 592ZM305 415Q325 414 325 387Q325 368 315 345L172 24Q140 -46 111 -95T49 -179T-16 -233T-92
-265T-178 -279T-283 -284Q-359 -284 -427 -263T-524 -200Q-496 -219 -426 -234T-302 -249H-290Q-150 -242 -71 -194T64 -21L203 292Q214 317 214 334Q214 364 181 364L305 415Z" />
<glyph unicode="k" glyph-name="k" horiz-adv-x="509" d="M684 -286Q589 -286 490 -217T325 -35T259 189Q259 211 262 232L204 100Q184 57 184 38Q184 20 201 20H204L126 -14Q95 -14 95 23Q95 54 116 100L322 564Q342 613 342 629Q342 644 326 646L420 684Q445
682 445 657Q445 640 433 615L269 247Q350 324 432 369T575 415H579H583Q603 415 616 405T630 376Q630 373 628 363Q605 314 562 314L534 341Q556 343 572 379Q469 376 340 258Q338 236 338 225Q338 138 380 48T483 -107T610 -211T724 -252Q783 -252 891 -200Q887
-204 866 -221T838 -243T812 -259T777 -274T738 -282T684 -286Z" />
<glyph unicode="l" glyph-name="l" horiz-adv-x="240" d="M433 615L196 84Q186 61 186 46Q186 23 210 20L124 -14Q92 -12 92 22Q92 45 110 87L322 564Q344 616 344 634Q344 650 329 650H327L421 685Q444 683 444 658Q444 640 433 615Z" />
<glyph unicode="m" glyph-name="m" horiz-adv-x="794" d="M132 -14Q97 -14 97 22Q97 45 115 87L208 296Q229 338 229 357Q229 372 214 382L307 415Q328 412 328 385Q328 369 318 345L306 320Q391 415 482 415H489Q527 415 553 395T579 337Q579 326 576 312Q684
415 759 415H767Q805 415 830 395T856 338Q856 308 841 277L755 84Q745 61 745 45Q745 23 769 20L682 -14Q651 -12 651 22Q651 45 669 87L753 277Q764 302 764 321Q764 345 750 360T714 375H711Q680 374 635 341T560 268L478 84Q468 61 468 45Q468 23 492 20Q482
10 455 -2T408 -14Q373 -14 373 23Q373 46 391 87L475 277Q486 302 486 321Q486 345 473 360T437 375H434Q393 375 342 331T279 258L201 84Q191 61 191 46Q191 23 215 20Q206 10 179 -2T132 -14Z" />
<glyph unicode="n" glyph-name="n" horiz-adv-x="516" d="M131 -14Q96 -14 96 22Q96 45 114 87L207 296Q228 338 228 357Q228 372 213 382L306 415Q327 412 327 385Q327 369 317 345L305 320Q390 415 481 415H489Q527 415 552 395T578 338Q578 310 562 277L476
84Q466 61 466 46Q466 23 490 20L404 -14Q372 -12 372 22Q372 45 390 87L474 277Q485 302 485 321Q485 345 472 360T436 375H433Q392 375 341 331T278 258L200 84Q190 61 190 46Q190 23 214 20Q205 10 178 -2T131 -14Z" />
<glyph unicode="o" glyph-name="o" horiz-adv-x="560" d="M288 20Q366 20 447 109T528 290Q528 331 508 356T449 381Q397 381 340 338T246 232T208 110Q208 69 229 45T288 20ZM115 108Q115 150 138 201T203 301T314 382T465 415Q539 415 582 386T625 300Q625 254
598 200T526 98T413 18T272 -14T157 18T115 108Z" />
<glyph unicode="p" glyph-name="p" horiz-adv-x="514" d="M263 14Q310 14 351 36T417 91T461 162T487 232T495 283Q495 363 405 363Q372 363 332 341T283 299L201 114Q193 98 193 78Q193 50 211 32T263 14ZM598 311Q598 265 571 209T499 103T389 20T254 -14Q224
-14 206 -5T162 27L75 -169Q57 -205 57 -221Q57 -240 80 -241L-23 -284H-25Q-46 -284 -46 -261Q-46 -244 -34 -214L274 473Q281 491 281 502Q281 514 265 514H258L343 556H345Q357 556 366 545T375 517Q375 508 374 504L303 344Q396 415 469 415Q530 415 564 389T598
311Z" />
<glyph unicode="q" glyph-name="q" horiz-adv-x="556" d="M449 363Q403 363 361 341T289 284T238 211T206 138T195 81Q195 14 280 14Q325 14 370 45T432 114L514 299Q516 302 516 310Q516 329 497 346T449 363ZM122 110Q122 153 143 205T203 304T301 383T431 415Q504
415 534 344Q545 371 572 393T618 415H620L666 380H662Q648 380 639 370T616 331L374 -214Q341 -284 302 -284H301L236 -241Q262 -240 276 -223T306 -169L393 27Q360 11 344 4T306 -8T264 -14Q197 -14 160 19T122 110Z" />
<glyph unicode="r" glyph-name="r" horiz-adv-x="372" d="M215 382L304 415Q330 415 330 386Q330 368 319 345Q423 415 485 415H490Q490 413 490 409T489 404Q489 364 519 360L435 312Q411 312 411 342Q411 357 418 372H415Q388 372 344 333T276 250L202 84Q192
61 192 46Q192 23 216 20L130 -14Q98 -12 98 22Q98 45 116 87L209 296Q230 338 230 357Q230 372 215 382Z" />
<glyph unicode="s" glyph-name="s" horiz-adv-x="406" d="M172 268Q172 282 183 304T217 352T286 396T390 415H399H405Q436 415 468 402T507 362L405 312Q412 329 412 345Q412 366 401 379T370 392H369Q318 392 287 363T255 312Q255 293 279 274T333 241T386 199T411
137Q411 114 401 93Q356 -14 193 -14Q140 -14 103 -2T66 35Q66 40 69 48Q84 77 110 91T179 110Q151 86 151 65Q151 50 165 36T208 20Q267 20 296 43T325 95Q325 137 262 180Q258 182 248 188T233 197T220 206T207 215T196 224T186 234T179 244T174 256T172 268Z"
/>
<glyph unicode="t" glyph-name="t" horiz-adv-x="274" d="M337 400H428L414 368H323L218 132Q192 71 192 45Q192 20 219 20L130 -14Q97 -12 97 26Q97 57 123 117L269 444Q288 479 288 498Q288 515 272 516L364 556Q387 556 387 530Q387 511 373 480L337 400Z" />
<glyph unicode="u" glyph-name="u" horiz-adv-x="517" d="M315 345L213 116Q203 95 203 77Q203 32 263 32H274Q297 32 342 59T400 115L481 296Q502 338 502 357Q502 372 487 382L581 415Q600 401 600 381Q600 368 591 345L474 84Q464 61 464 46Q464 23 488 20L402
-14Q371 -12 371 23Q371 34 378 60Q270 -14 216 -14H207Q167 -14 140 6T112 63Q112 86 126 119L205 296Q226 338 226 357Q226 372 210 382L305 415Q322 403 322 377Q322 362 315 345Z" />
<glyph unicode="v" glyph-name="v" horiz-adv-x="472" d="M503 498Q539 532 582 535Q654 531 654 482Q654 474 653 469Q640 444 601 398L299 36Q286 21 272 9T250 -8T238 -14V-4Q238 2 238 17T239 40Q239 53 238 60L220 270Q219 298 218 312T213 343T202 369T181
378L286 415H287Q312 415 314 320L330 114L573 414Q591 434 591 448Q591 500 527 500Q521 500 503 498Z" />
<glyph unicode="w" glyph-name="w" horiz-adv-x="724" d="M836 448Q836 467 816 482T750 498Q794 535 832 535Q851 534 866 516T882 470Q882 432 851 398L550 36Q537 21 523 9T501 -8T489 -14V-4Q489 2 489 17T490 40Q490 53 489 60L474 223L299 36Q286 21 272
9T250 -8T238 -14V-4Q238 2 238 17T239 40Q239 53 238 60L220 270Q219 298 218 312T213 343T202 369T181 378L286 415H287Q312 415 314 320L330 114L472 264Q471 270 470 292T467 330T457 362T432 378L537 415Q567 415 581 114L823 414Q836 433 836 448Z" />
<glyph unicode="x" glyph-name="x" horiz-adv-x="532" d="M313 160Q177 40 135 13Q95 -14 74 -14Q54 -14 42 -5T29 19V22L99 78L115 50Q129 50 189 94T304 192L263 325Q257 347 239 365T199 385L305 415Q310 415 315 411T324 400T333 385T341 365T349 344T357
320T363 297T370 274T376 254Q395 269 429 298T483 343T531 379T580 406T622 415Q661 415 661 383Q661 373 656 360Q636 323 597 320L578 353Q582 359 582 361Q582 367 566 368Q561 367 553 362T531 346T506 327T476 302T445 276T413 247T383 221Q407 125 455 20T568
-167T690 -248Q698 -249 716 -249Q812 -249 891 -200Q836 -247 793 -265T677 -284H666H664Q606 -284 553 -250T462 -167T392 -54T342 62T313 160Z" />
<glyph unicode="y" glyph-name="y" horiz-adv-x="470" d="M500 379Q536 415 578 415Q603 415 603 387Q603 371 595 357L261 -12Q257 -16 223 -54T169 -113T110 -171T42 -229T-22 -267T-86 -284Q-114 -282 -136 -268T-195 -204Q-167 -228 -147 -235T-98 -243Q-94
-243 -86 -243T-72 -242H-71Q-30 -242 66 -157T223 2L205 354Q202 376 177 380L275 415H276Q301 415 301 332V320L308 90L536 346Q538 354 538 358Q538 380 510 380Q508 380 505 380T500 379Z" />
<glyph unicode="z" glyph-name="z" horiz-adv-x="472" d="M319 415Q349 413 371 406T403 392T421 379T438 373Q454 373 493 400H609L596 370L182 44Q214 35 263 -12T356 -111T453 -204T548 -248Q562 -250 573 -250Q657 -250 711 -200Q669 -252 637 -268T552 -284H534Q486
-283 433 -254T336 -183T251 -100T177 -29T122 0H42L55 30L467 358Q447 346 430 346Q408 346 386 366Q363 385 346 385H345Q323 385 304 371T285 342T310 327L247 290H245Q223 290 211 303T198 334Q198 362 225 387T319 415Z" />
<glyph unicode="{" glyph-name="braceleft" horiz-adv-x="267" d="M172 -181Q103 -179 72 -165T41 -116Q41 -85 61 -41L140 136Q157 175 157 196Q157 215 144 227T102 250Q163 265 190 288T241 363L320 541Q354 619 403 648T537 680H556L551 669Q490 656 458 629T400
546L325 378Q315 355 308 340T290 313T275 295T256 282T235 272T205 262T169 249Q233 232 233 195Q233 178 211 121L136 -47Q118 -88 118 -112Q118 -135 132 -148T177 -170L172 -181Z" />
<glyph unicode="|" glyph-name="bar" horiz-adv-x="279" d="M264 -14H195V676H264V-14Z" />
<glyph unicode="}" glyph-name="braceright" horiz-adv-x="276" d="M333 661L310 669L315 680Q385 679 416 665T447 617Q447 590 425 540L347 363Q330 323 330 302Q330 266 386 250Q324 233 296 210T246 136L166 -42Q131 -120 83 -149T-50 -181H-69L-64 -170Q-3
-157 29 -130T87 -47L162 121Q190 184 222 209T317 250Q283 259 268 271T253 304Q253 327 276 378L351 546Q368 583 368 611Q368 635 355 647L333 661Z" />
<glyph unicode="~" glyph-name="asciitilde" horiz-adv-x="559" d="M277 320Q330 320 388 286Q448 252 487 252Q528 252 574 303H647Q639 268 579 227T485 186H483Q432 186 372 220Q314 254 272 254Q223 254 202 202H130Q152 255 196 287T277 320Z" />
</font>
</defs>
</svg>
